<mxfile host="Electron" agent="Mozilla/5.0 (Windows NT 10.0; Win64; x64) AppleWebKit/537.36 (KHTML, like Gecko) draw.io/26.0.15 Chrome/132.0.6834.196 Electron/34.2.0 Safari/537.36" version="26.0.15">
  <diagram name="Страница — 1" id="p9aGxCSqjptMdr50f675">
    <mxGraphModel dx="4732" dy="3699" grid="1" gridSize="10" guides="1" tooltips="1" connect="1" arrows="1" fold="1" page="1" pageScale="1" pageWidth="827" pageHeight="1169" math="0" shadow="0">
      <root>
        <mxCell id="0" />
        <mxCell id="1" parent="0" />
        <mxCell id="tPsQbabGo925ckdTW9Yo-2" value="" style="endArrow=none;dashed=1;html=1;rounded=0;fillColor=#e1d5e7;strokeColor=#9673a6;strokeWidth=4;" edge="1" parent="1" source="tPsQbabGo925ckdTW9Yo-13">
          <mxGeometry width="50" height="50" relative="1" as="geometry">
            <mxPoint x="-50" y="80" as="sourcePoint" />
            <mxPoint x="2450" y="80" as="targetPoint" />
          </mxGeometry>
        </mxCell>
        <mxCell id="tPsQbabGo925ckdTW9Yo-3" value="User" style="shape=umlActor;verticalLabelPosition=bottom;verticalAlign=top;html=1;outlineConnect=0;" vertex="1" parent="1">
          <mxGeometry y="-10" width="30" height="60" as="geometry" />
        </mxCell>
        <mxCell id="tPsQbabGo925ckdTW9Yo-4" value="Admin" style="shape=umlActor;verticalLabelPosition=bottom;verticalAlign=top;html=1;outlineConnect=0;" vertex="1" parent="1">
          <mxGeometry x="190" y="-10" width="30" height="60" as="geometry" />
        </mxCell>
        <mxCell id="tPsQbabGo925ckdTW9Yo-5" value="System" style="rounded=1;whiteSpace=wrap;html=1;fillColor=#e1d5e7;strokeColor=#9673a6;" vertex="1" parent="1">
          <mxGeometry x="560" y="10" width="120" height="30" as="geometry" />
        </mxCell>
        <mxCell id="tPsQbabGo925ckdTW9Yo-6" value="RouteWindow" style="rounded=1;whiteSpace=wrap;html=1;fillColor=#e1d5e7;strokeColor=#9673a6;" vertex="1" parent="1">
          <mxGeometry x="1970" y="10" width="120" height="30" as="geometry" />
        </mxCell>
        <mxCell id="tPsQbabGo925ckdTW9Yo-7" value="Database" style="rounded=1;whiteSpace=wrap;html=1;fillColor=#e1d5e7;strokeColor=#9673a6;" vertex="1" parent="1">
          <mxGeometry x="2190" y="10" width="120" height="30" as="geometry" />
        </mxCell>
        <mxCell id="tPsQbabGo925ckdTW9Yo-8" value="TransportWindow" style="rounded=1;whiteSpace=wrap;html=1;fillColor=#e1d5e7;strokeColor=#9673a6;" vertex="1" parent="1">
          <mxGeometry x="1730" y="10" width="120" height="30" as="geometry" />
        </mxCell>
        <mxCell id="tPsQbabGo925ckdTW9Yo-9" value="DriverWindow" style="rounded=1;whiteSpace=wrap;html=1;fillColor=#e1d5e7;strokeColor=#9673a6;" vertex="1" parent="1">
          <mxGeometry x="1470" y="10" width="120" height="30" as="geometry" />
        </mxCell>
        <mxCell id="tPsQbabGo925ckdTW9Yo-10" value="AdminMenu" style="rounded=1;whiteSpace=wrap;html=1;fillColor=#e1d5e7;strokeColor=#9673a6;" vertex="1" parent="1">
          <mxGeometry x="1241" y="10" width="120" height="30" as="geometry" />
        </mxCell>
        <mxCell id="tPsQbabGo925ckdTW9Yo-11" value="UserMenu" style="rounded=1;whiteSpace=wrap;html=1;fillColor=#e1d5e7;strokeColor=#9673a6;" vertex="1" parent="1">
          <mxGeometry x="1020" y="10" width="120" height="30" as="geometry" />
        </mxCell>
        <mxCell id="tPsQbabGo925ckdTW9Yo-14" value="" style="endArrow=none;dashed=1;html=1;rounded=0;fillColor=#e1d5e7;strokeColor=#9673a6;strokeWidth=4;" edge="1" parent="1" target="tPsQbabGo925ckdTW9Yo-13">
          <mxGeometry width="50" height="50" relative="1" as="geometry">
            <mxPoint x="-50" y="80" as="sourcePoint" />
            <mxPoint x="2450" y="80" as="targetPoint" />
          </mxGeometry>
        </mxCell>
        <mxCell id="tPsQbabGo925ckdTW9Yo-13" value="&lt;div&gt;&lt;span style=&quot;background-color: transparent; color: light-dark(rgb(0, 0, 0), rgb(255, 255, 255));&quot;&gt;== Регистрация и Авторизация ==&lt;/span&gt;&lt;/div&gt;" style="shape=parallelogram;perimeter=parallelogramPerimeter;whiteSpace=wrap;html=1;fixedSize=1;fillColor=#E6D0DE;strokeColor=#9673a6;" vertex="1" parent="1">
          <mxGeometry x="911" y="60" width="660" height="30" as="geometry" />
        </mxCell>
        <mxCell id="tPsQbabGo925ckdTW9Yo-15" value="" style="endArrow=classic;html=1;rounded=0;" edge="1" parent="1">
          <mxGeometry width="50" height="50" relative="1" as="geometry">
            <mxPoint x="10" y="160" as="sourcePoint" />
            <mxPoint x="620" y="160" as="targetPoint" />
          </mxGeometry>
        </mxCell>
        <mxCell id="tPsQbabGo925ckdTW9Yo-16" value="Ввод данных (Регистрация / Авторизация)" style="text;html=1;align=center;verticalAlign=middle;whiteSpace=wrap;rounded=0;" vertex="1" parent="1">
          <mxGeometry x="220" y="130" width="320" height="30" as="geometry" />
        </mxCell>
        <mxCell id="tPsQbabGo925ckdTW9Yo-17" value="" style="endArrow=none;dashed=1;html=1;rounded=0;strokeWidth=1;fillColor=#e1d5e7;strokeColor=#9673a6;exitX=1;exitY=0.3333333333333333;exitDx=0;exitDy=0;exitPerimeter=0;" edge="1" parent="1" source="tPsQbabGo925ckdTW9Yo-192" target="tPsQbabGo925ckdTW9Yo-3">
          <mxGeometry width="50" height="50" relative="1" as="geometry">
            <mxPoint x="15" y="2240" as="sourcePoint" />
            <mxPoint x="10" y="110" as="targetPoint" />
          </mxGeometry>
        </mxCell>
        <mxCell id="tPsQbabGo925ckdTW9Yo-18" value="" style="endArrow=none;dashed=1;html=1;rounded=0;strokeWidth=1;fillColor=#e1d5e7;strokeColor=#9673a6;" edge="1" parent="1" source="tPsQbabGo925ckdTW9Yo-193">
          <mxGeometry width="50" height="50" relative="1" as="geometry">
            <mxPoint x="200" y="3311.818181818182" as="sourcePoint" />
            <mxPoint x="204.5" y="40" as="targetPoint" />
          </mxGeometry>
        </mxCell>
        <mxCell id="tPsQbabGo925ckdTW9Yo-19" value="" style="endArrow=none;dashed=1;html=1;rounded=0;strokeWidth=1;fillColor=#e1d5e7;strokeColor=#9673a6;exitX=0.5;exitY=1;exitDx=0;exitDy=0;" edge="1" parent="1" source="tPsQbabGo925ckdTW9Yo-194">
          <mxGeometry width="50" height="50" relative="1" as="geometry">
            <mxPoint x="620" y="3542.7272727272725" as="sourcePoint" />
            <mxPoint x="619.5" y="40" as="targetPoint" />
          </mxGeometry>
        </mxCell>
        <mxCell id="tPsQbabGo925ckdTW9Yo-20" value="" style="endArrow=classic;html=1;rounded=0;" edge="1" parent="1">
          <mxGeometry width="50" height="50" relative="1" as="geometry">
            <mxPoint x="620" y="210" as="sourcePoint" />
            <mxPoint x="20" y="210" as="targetPoint" />
          </mxGeometry>
        </mxCell>
        <mxCell id="tPsQbabGo925ckdTW9Yo-21" value="Проверка введенных данных" style="text;html=1;align=center;verticalAlign=middle;whiteSpace=wrap;rounded=0;" vertex="1" parent="1">
          <mxGeometry x="250" y="170" width="230" height="30" as="geometry" />
        </mxCell>
        <mxCell id="tPsQbabGo925ckdTW9Yo-22" value="" style="endArrow=classic;html=1;rounded=0;" edge="1" parent="1">
          <mxGeometry width="50" height="50" relative="1" as="geometry">
            <mxPoint x="620" y="240" as="sourcePoint" />
            <mxPoint x="620" y="300" as="targetPoint" />
            <Array as="points">
              <mxPoint x="680" y="240" />
              <mxPoint x="680" y="300" />
            </Array>
          </mxGeometry>
        </mxCell>
        <mxCell id="tPsQbabGo925ckdTW9Yo-23" value="Проверка роли пользователя (админ или обычный)" style="text;html=1;align=center;verticalAlign=middle;whiteSpace=wrap;rounded=0;" vertex="1" parent="1">
          <mxGeometry x="680" y="250" width="330" height="30" as="geometry" />
        </mxCell>
        <mxCell id="tPsQbabGo925ckdTW9Yo-24" value="" style="endArrow=none;dashed=1;html=1;rounded=0;fillColor=#e1d5e7;strokeColor=#9673a6;strokeWidth=4;" edge="1" parent="1" source="tPsQbabGo925ckdTW9Yo-25">
          <mxGeometry width="50" height="50" relative="1" as="geometry">
            <mxPoint x="-50" y="340" as="sourcePoint" />
            <mxPoint x="2450" y="340" as="targetPoint" />
          </mxGeometry>
        </mxCell>
        <mxCell id="tPsQbabGo925ckdTW9Yo-27" value="" style="endArrow=none;dashed=1;html=1;rounded=0;fillColor=#e1d5e7;strokeColor=#9673a6;strokeWidth=4;" edge="1" parent="1" target="tPsQbabGo925ckdTW9Yo-25">
          <mxGeometry width="50" height="50" relative="1" as="geometry">
            <mxPoint x="-50" y="340" as="sourcePoint" />
            <mxPoint x="2450" y="340" as="targetPoint" />
          </mxGeometry>
        </mxCell>
        <mxCell id="tPsQbabGo925ckdTW9Yo-25" value="== Меню пользователя ==" style="shape=parallelogram;perimeter=parallelogramPerimeter;whiteSpace=wrap;html=1;fixedSize=1;fillColor=#E6D0DE;strokeColor=#9673a6;" vertex="1" parent="1">
          <mxGeometry x="950" y="330" width="660" height="30" as="geometry" />
        </mxCell>
        <mxCell id="tPsQbabGo925ckdTW9Yo-28" value="Если пользователь — обычный" style="text;html=1;align=center;verticalAlign=middle;whiteSpace=wrap;rounded=0;" vertex="1" parent="1">
          <mxGeometry x="250" y="380" width="220" height="30" as="geometry" />
        </mxCell>
        <mxCell id="tPsQbabGo925ckdTW9Yo-29" value="" style="endArrow=classic;html=1;rounded=0;" edge="1" parent="1">
          <mxGeometry width="50" height="50" relative="1" as="geometry">
            <mxPoint x="620" y="410" as="sourcePoint" />
            <mxPoint x="20" y="410" as="targetPoint" />
          </mxGeometry>
        </mxCell>
        <mxCell id="tPsQbabGo925ckdTW9Yo-30" value="" style="endArrow=classic;html=1;rounded=0;" edge="1" parent="1">
          <mxGeometry width="50" height="50" relative="1" as="geometry">
            <mxPoint x="20" y="460" as="sourcePoint" />
            <mxPoint x="1080" y="461" as="targetPoint" />
          </mxGeometry>
        </mxCell>
        <mxCell id="tPsQbabGo925ckdTW9Yo-31" value="" style="endArrow=none;dashed=1;html=1;rounded=0;strokeWidth=1;fillColor=#e1d5e7;strokeColor=#9673a6;" edge="1" parent="1" source="tPsQbabGo925ckdTW9Yo-200">
          <mxGeometry width="50" height="50" relative="1" as="geometry">
            <mxPoint x="1080" y="4163.636363636364" as="sourcePoint" />
            <mxPoint x="1079.5" y="30" as="targetPoint" />
          </mxGeometry>
        </mxCell>
        <mxCell id="tPsQbabGo925ckdTW9Yo-32" value="&amp;nbsp;Открытие меню пользователя" style="text;html=1;align=center;verticalAlign=middle;whiteSpace=wrap;rounded=0;" vertex="1" parent="1">
          <mxGeometry x="240" y="420" width="240" height="30" as="geometry" />
        </mxCell>
        <mxCell id="tPsQbabGo925ckdTW9Yo-33" value="" style="endArrow=classic;html=1;rounded=0;" edge="1" parent="1">
          <mxGeometry width="50" height="50" relative="1" as="geometry">
            <mxPoint x="1081" y="500" as="sourcePoint" />
            <mxPoint x="20" y="500" as="targetPoint" />
          </mxGeometry>
        </mxCell>
        <mxCell id="tPsQbabGo925ckdTW9Yo-34" value="" style="endArrow=classic;html=1;rounded=0;" edge="1" parent="1">
          <mxGeometry width="50" height="50" relative="1" as="geometry">
            <mxPoint x="1081" y="540" as="sourcePoint" />
            <mxPoint x="20" y="540" as="targetPoint" />
          </mxGeometry>
        </mxCell>
        <mxCell id="tPsQbabGo925ckdTW9Yo-35" value="" style="endArrow=classic;html=1;rounded=0;" edge="1" parent="1">
          <mxGeometry width="50" height="50" relative="1" as="geometry">
            <mxPoint x="1081" y="583" as="sourcePoint" />
            <mxPoint x="20" y="583" as="targetPoint" />
          </mxGeometry>
        </mxCell>
        <mxCell id="tPsQbabGo925ckdTW9Yo-36" value="" style="endArrow=classic;html=1;rounded=0;" edge="1" parent="1">
          <mxGeometry width="50" height="50" relative="1" as="geometry">
            <mxPoint x="1081" y="620" as="sourcePoint" />
            <mxPoint x="20" y="620" as="targetPoint" />
          </mxGeometry>
        </mxCell>
        <mxCell id="tPsQbabGo925ckdTW9Yo-37" value="" style="endArrow=classic;html=1;rounded=0;" edge="1" parent="1">
          <mxGeometry width="50" height="50" relative="1" as="geometry">
            <mxPoint x="1081" y="660" as="sourcePoint" />
            <mxPoint x="20" y="660" as="targetPoint" />
          </mxGeometry>
        </mxCell>
        <mxCell id="tPsQbabGo925ckdTW9Yo-38" value="Показать кнопки:" style="text;html=1;align=center;verticalAlign=middle;whiteSpace=wrap;rounded=0;fillColor=#f8cecc;strokeColor=#b85450;" vertex="1" parent="1">
          <mxGeometry x="280" y="470" width="160" height="30" as="geometry" />
        </mxCell>
        <mxCell id="tPsQbabGo925ckdTW9Yo-39" value="1. Водители" style="text;html=1;align=center;verticalAlign=middle;whiteSpace=wrap;rounded=0;" vertex="1" parent="1">
          <mxGeometry x="295" y="510" width="130" height="30" as="geometry" />
        </mxCell>
        <mxCell id="tPsQbabGo925ckdTW9Yo-40" value="2. Транспорт" style="text;html=1;align=center;verticalAlign=middle;whiteSpace=wrap;rounded=0;" vertex="1" parent="1">
          <mxGeometry x="305" y="555" width="120" height="30" as="geometry" />
        </mxCell>
        <mxCell id="tPsQbabGo925ckdTW9Yo-41" value="3. Маршруты" style="text;html=1;align=center;verticalAlign=middle;whiteSpace=wrap;rounded=0;" vertex="1" parent="1">
          <mxGeometry x="314" y="590" width="100" height="30" as="geometry" />
        </mxCell>
        <mxCell id="tPsQbabGo925ckdTW9Yo-42" value="4. Выход" style="text;html=1;align=center;verticalAlign=middle;whiteSpace=wrap;rounded=0;" vertex="1" parent="1">
          <mxGeometry x="315" y="630" width="100" height="30" as="geometry" />
        </mxCell>
        <mxCell id="tPsQbabGo925ckdTW9Yo-43" value="" style="endArrow=none;dashed=1;html=1;rounded=0;fillColor=#e1d5e7;strokeColor=#9673a6;strokeWidth=4;" edge="1" parent="1" source="tPsQbabGo925ckdTW9Yo-44">
          <mxGeometry width="50" height="50" relative="1" as="geometry">
            <mxPoint x="-30" y="720" as="sourcePoint" />
            <mxPoint x="2441.818181818182" y="720" as="targetPoint" />
          </mxGeometry>
        </mxCell>
        <mxCell id="tPsQbabGo925ckdTW9Yo-45" value="" style="endArrow=none;dashed=1;html=1;rounded=0;fillColor=#e1d5e7;strokeColor=#9673a6;strokeWidth=4;" edge="1" parent="1" target="tPsQbabGo925ckdTW9Yo-44">
          <mxGeometry width="50" height="50" relative="1" as="geometry">
            <mxPoint x="-30" y="720" as="sourcePoint" />
            <mxPoint x="2441.818181818182" y="720" as="targetPoint" />
          </mxGeometry>
        </mxCell>
        <mxCell id="tPsQbabGo925ckdTW9Yo-44" value="== Пользователь выбирает &quot;Водители&quot; ==" style="shape=parallelogram;perimeter=parallelogramPerimeter;whiteSpace=wrap;html=1;fixedSize=1;fillColor=#E6D0DE;strokeColor=#9673a6;" vertex="1" parent="1">
          <mxGeometry x="950" y="700" width="660" height="30" as="geometry" />
        </mxCell>
        <mxCell id="tPsQbabGo925ckdTW9Yo-46" value="" style="endArrow=none;dashed=1;html=1;rounded=0;strokeWidth=1;fillColor=#e1d5e7;strokeColor=#9673a6;" edge="1" parent="1" source="tPsQbabGo925ckdTW9Yo-198">
          <mxGeometry width="50" height="50" relative="1" as="geometry">
            <mxPoint x="1529" y="3460" as="sourcePoint" />
            <mxPoint x="1529.23" y="40" as="targetPoint" />
          </mxGeometry>
        </mxCell>
        <mxCell id="tPsQbabGo925ckdTW9Yo-47" value="" style="endArrow=none;dashed=1;html=1;rounded=0;strokeWidth=1;fillColor=#e1d5e7;strokeColor=#9673a6;" edge="1" parent="1" source="tPsQbabGo925ckdTW9Yo-199">
          <mxGeometry width="50" height="50" relative="1" as="geometry">
            <mxPoint x="1300" y="3450" as="sourcePoint" />
            <mxPoint x="1300.23" y="40" as="targetPoint" />
          </mxGeometry>
        </mxCell>
        <mxCell id="tPsQbabGo925ckdTW9Yo-48" value="" style="endArrow=none;dashed=1;html=1;rounded=0;strokeWidth=1;fillColor=#e1d5e7;strokeColor=#9673a6;" edge="1" parent="1" source="tPsQbabGo925ckdTW9Yo-197">
          <mxGeometry width="50" height="50" relative="1" as="geometry">
            <mxPoint x="1800" y="3434" as="sourcePoint" />
            <mxPoint x="1789.23" y="40" as="targetPoint" />
          </mxGeometry>
        </mxCell>
        <mxCell id="tPsQbabGo925ckdTW9Yo-49" value="" style="endArrow=classic;html=1;rounded=0;" edge="1" parent="1">
          <mxGeometry width="50" height="50" relative="1" as="geometry">
            <mxPoint x="10" y="790" as="sourcePoint" />
            <mxPoint x="1534.4444444444443" y="790" as="targetPoint" />
          </mxGeometry>
        </mxCell>
        <mxCell id="tPsQbabGo925ckdTW9Yo-50" value="&amp;nbsp;Нажатие на кнопку &quot;Водители&quot;" style="text;html=1;align=center;verticalAlign=middle;whiteSpace=wrap;rounded=0;" vertex="1" parent="1">
          <mxGeometry x="280" y="750" width="220" height="30" as="geometry" />
        </mxCell>
        <mxCell id="tPsQbabGo925ckdTW9Yo-52" value="" style="endArrow=classic;html=1;rounded=0;" edge="1" parent="1">
          <mxGeometry width="50" height="50" relative="1" as="geometry">
            <mxPoint x="1534.4444444444443" y="830" as="sourcePoint" />
            <mxPoint x="20" y="830" as="targetPoint" />
          </mxGeometry>
        </mxCell>
        <mxCell id="tPsQbabGo925ckdTW9Yo-53" value="" style="endArrow=classic;html=1;rounded=0;" edge="1" parent="1">
          <mxGeometry width="50" height="50" relative="1" as="geometry">
            <mxPoint x="1534.4444444444443" y="870" as="sourcePoint" />
            <mxPoint x="20" y="870" as="targetPoint" />
          </mxGeometry>
        </mxCell>
        <mxCell id="tPsQbabGo925ckdTW9Yo-54" value="Показать список водителей" style="text;html=1;align=center;verticalAlign=middle;whiteSpace=wrap;rounded=0;" vertex="1" parent="1">
          <mxGeometry x="297.5" y="800" width="185" height="30" as="geometry" />
        </mxCell>
        <mxCell id="tPsQbabGo925ckdTW9Yo-55" value="Просмотр информации о водителях" style="text;html=1;align=center;verticalAlign=middle;whiteSpace=wrap;rounded=0;" vertex="1" parent="1">
          <mxGeometry x="251.25" y="840" width="277.5" height="30" as="geometry" />
        </mxCell>
        <mxCell id="tPsQbabGo925ckdTW9Yo-56" value="" style="endArrow=classic;html=1;rounded=0;" edge="1" parent="1">
          <mxGeometry width="50" height="50" relative="1" as="geometry">
            <mxPoint x="20" y="920" as="sourcePoint" />
            <mxPoint x="1080" y="920" as="targetPoint" />
          </mxGeometry>
        </mxCell>
        <mxCell id="tPsQbabGo925ckdTW9Yo-57" value="&lt;div&gt;Выход из окна водителей&lt;/div&gt;&lt;div&gt;&lt;br&gt;&lt;/div&gt;" style="text;html=1;align=center;verticalAlign=middle;whiteSpace=wrap;rounded=0;" vertex="1" parent="1">
          <mxGeometry x="310" y="880" width="170" height="30" as="geometry" />
        </mxCell>
        <mxCell id="tPsQbabGo925ckdTW9Yo-58" value="" style="endArrow=none;dashed=1;html=1;rounded=0;fillColor=#e1d5e7;strokeColor=#9673a6;strokeWidth=4;" edge="1" parent="1" source="tPsQbabGo925ckdTW9Yo-60">
          <mxGeometry width="50" height="50" relative="1" as="geometry">
            <mxPoint x="-30" y="970" as="sourcePoint" />
            <mxPoint x="2441.818181818182" y="970" as="targetPoint" />
          </mxGeometry>
        </mxCell>
        <mxCell id="tPsQbabGo925ckdTW9Yo-59" value="" style="endArrow=none;dashed=1;html=1;rounded=0;fillColor=#e1d5e7;strokeColor=#9673a6;strokeWidth=4;" edge="1" parent="1" target="tPsQbabGo925ckdTW9Yo-60">
          <mxGeometry width="50" height="50" relative="1" as="geometry">
            <mxPoint x="-30" y="970" as="sourcePoint" />
            <mxPoint x="2441.818181818182" y="970" as="targetPoint" />
          </mxGeometry>
        </mxCell>
        <mxCell id="tPsQbabGo925ckdTW9Yo-60" value="== Пользователь выбирает &quot;Транспорт&quot; ==" style="shape=parallelogram;perimeter=parallelogramPerimeter;whiteSpace=wrap;html=1;fixedSize=1;fillColor=#E6D0DE;strokeColor=#9673a6;" vertex="1" parent="1">
          <mxGeometry x="950" y="950" width="660" height="30" as="geometry" />
        </mxCell>
        <mxCell id="tPsQbabGo925ckdTW9Yo-61" value="" style="endArrow=classic;html=1;rounded=0;" edge="1" parent="1">
          <mxGeometry width="50" height="50" relative="1" as="geometry">
            <mxPoint x="10" y="1040" as="sourcePoint" />
            <mxPoint x="1800" y="1040" as="targetPoint" />
          </mxGeometry>
        </mxCell>
        <mxCell id="tPsQbabGo925ckdTW9Yo-62" value="Нажатие на кнопку &quot;Транспорт&quot;" style="text;html=1;align=center;verticalAlign=middle;whiteSpace=wrap;rounded=0;" vertex="1" parent="1">
          <mxGeometry x="280" y="1000" width="220" height="30" as="geometry" />
        </mxCell>
        <mxCell id="tPsQbabGo925ckdTW9Yo-63" value="" style="endArrow=classic;html=1;rounded=0;" edge="1" parent="1">
          <mxGeometry width="50" height="50" relative="1" as="geometry">
            <mxPoint x="1790" y="1080" as="sourcePoint" />
            <mxPoint x="20" y="1080" as="targetPoint" />
          </mxGeometry>
        </mxCell>
        <mxCell id="tPsQbabGo925ckdTW9Yo-64" value="" style="endArrow=classic;html=1;rounded=0;" edge="1" parent="1">
          <mxGeometry width="50" height="50" relative="1" as="geometry">
            <mxPoint x="1790" y="1120" as="sourcePoint" />
            <mxPoint x="20" y="1120" as="targetPoint" />
          </mxGeometry>
        </mxCell>
        <mxCell id="tPsQbabGo925ckdTW9Yo-65" value="Показать список транспорта" style="text;html=1;align=center;verticalAlign=middle;whiteSpace=wrap;rounded=0;" vertex="1" parent="1">
          <mxGeometry x="297.5" y="1050" width="185" height="30" as="geometry" />
        </mxCell>
        <mxCell id="tPsQbabGo925ckdTW9Yo-66" value="Просмотр информации о транспорте" style="text;html=1;align=center;verticalAlign=middle;whiteSpace=wrap;rounded=0;" vertex="1" parent="1">
          <mxGeometry x="251.25" y="1090" width="277.5" height="30" as="geometry" />
        </mxCell>
        <mxCell id="tPsQbabGo925ckdTW9Yo-67" value="" style="endArrow=classic;html=1;rounded=0;" edge="1" parent="1">
          <mxGeometry width="50" height="50" relative="1" as="geometry">
            <mxPoint x="20" y="1160" as="sourcePoint" />
            <mxPoint x="1080" y="1160" as="targetPoint" />
          </mxGeometry>
        </mxCell>
        <mxCell id="tPsQbabGo925ckdTW9Yo-68" value="&lt;div&gt;Выход из окна транспорта&lt;/div&gt;" style="text;html=1;align=center;verticalAlign=middle;whiteSpace=wrap;rounded=0;" vertex="1" parent="1">
          <mxGeometry x="310" y="1130" width="170" height="30" as="geometry" />
        </mxCell>
        <mxCell id="tPsQbabGo925ckdTW9Yo-80" value="" style="endArrow=none;dashed=1;html=1;rounded=0;fillColor=#e1d5e7;strokeColor=#9673a6;strokeWidth=4;" edge="1" parent="1" source="tPsQbabGo925ckdTW9Yo-82">
          <mxGeometry width="50" height="50" relative="1" as="geometry">
            <mxPoint x="-30" y="1200" as="sourcePoint" />
            <mxPoint x="2441.818181818182" y="1200" as="targetPoint" />
          </mxGeometry>
        </mxCell>
        <mxCell id="tPsQbabGo925ckdTW9Yo-81" value="" style="endArrow=none;dashed=1;html=1;rounded=0;fillColor=#e1d5e7;strokeColor=#9673a6;strokeWidth=4;" edge="1" parent="1" target="tPsQbabGo925ckdTW9Yo-82">
          <mxGeometry width="50" height="50" relative="1" as="geometry">
            <mxPoint x="-30" y="1200" as="sourcePoint" />
            <mxPoint x="2441.818181818182" y="1200" as="targetPoint" />
          </mxGeometry>
        </mxCell>
        <mxCell id="tPsQbabGo925ckdTW9Yo-82" value="== Пользователь выбирает &quot;Маршруты&quot; ==" style="shape=parallelogram;perimeter=parallelogramPerimeter;whiteSpace=wrap;html=1;fixedSize=1;fillColor=#E6D0DE;strokeColor=#9673a6;" vertex="1" parent="1">
          <mxGeometry x="950" y="1180" width="660" height="30" as="geometry" />
        </mxCell>
        <mxCell id="tPsQbabGo925ckdTW9Yo-83" value="" style="endArrow=classic;html=1;rounded=0;" edge="1" parent="1">
          <mxGeometry width="50" height="50" relative="1" as="geometry">
            <mxPoint x="10" y="1270" as="sourcePoint" />
            <mxPoint x="2050" y="1270" as="targetPoint" />
          </mxGeometry>
        </mxCell>
        <mxCell id="tPsQbabGo925ckdTW9Yo-84" value="Нажатие на кнопку &quot;Маршруты&quot;" style="text;html=1;align=center;verticalAlign=middle;whiteSpace=wrap;rounded=0;" vertex="1" parent="1">
          <mxGeometry x="280" y="1230" width="220" height="30" as="geometry" />
        </mxCell>
        <mxCell id="tPsQbabGo925ckdTW9Yo-85" value="" style="endArrow=classic;html=1;rounded=0;" edge="1" parent="1">
          <mxGeometry width="50" height="50" relative="1" as="geometry">
            <mxPoint x="2050" y="1310" as="sourcePoint" />
            <mxPoint x="20" y="1310" as="targetPoint" />
          </mxGeometry>
        </mxCell>
        <mxCell id="tPsQbabGo925ckdTW9Yo-86" value="" style="endArrow=classic;html=1;rounded=0;" edge="1" parent="1">
          <mxGeometry width="50" height="50" relative="1" as="geometry">
            <mxPoint x="2040" y="1350" as="sourcePoint" />
            <mxPoint x="20" y="1350" as="targetPoint" />
          </mxGeometry>
        </mxCell>
        <mxCell id="tPsQbabGo925ckdTW9Yo-87" value="Показать список маршрутов" style="text;html=1;align=center;verticalAlign=middle;whiteSpace=wrap;rounded=0;" vertex="1" parent="1">
          <mxGeometry x="297.5" y="1280" width="185" height="30" as="geometry" />
        </mxCell>
        <mxCell id="tPsQbabGo925ckdTW9Yo-88" value="Просмотр информации о маршрутах" style="text;html=1;align=center;verticalAlign=middle;whiteSpace=wrap;rounded=0;" vertex="1" parent="1">
          <mxGeometry x="251.25" y="1320" width="277.5" height="30" as="geometry" />
        </mxCell>
        <mxCell id="tPsQbabGo925ckdTW9Yo-89" value="" style="endArrow=classic;html=1;rounded=0;" edge="1" parent="1">
          <mxGeometry width="50" height="50" relative="1" as="geometry">
            <mxPoint x="20" y="1390" as="sourcePoint" />
            <mxPoint x="1080" y="1390" as="targetPoint" />
          </mxGeometry>
        </mxCell>
        <mxCell id="tPsQbabGo925ckdTW9Yo-90" value="&lt;div&gt;&amp;nbsp;Выход из окна маршрутов&lt;/div&gt;" style="text;html=1;align=center;verticalAlign=middle;whiteSpace=wrap;rounded=0;" vertex="1" parent="1">
          <mxGeometry x="310" y="1360" width="170" height="30" as="geometry" />
        </mxCell>
        <mxCell id="tPsQbabGo925ckdTW9Yo-91" value="" style="endArrow=none;dashed=1;html=1;rounded=0;strokeWidth=1;fillColor=#e1d5e7;strokeColor=#9673a6;" edge="1" parent="1">
          <mxGeometry width="50" height="50" relative="1" as="geometry">
            <mxPoint x="2050" y="3428" as="sourcePoint" />
            <mxPoint x="2040" y="40" as="targetPoint" />
          </mxGeometry>
        </mxCell>
        <mxCell id="tPsQbabGo925ckdTW9Yo-92" value="" style="endArrow=none;dashed=1;html=1;rounded=0;fillColor=#e1d5e7;strokeColor=#9673a6;strokeWidth=4;" edge="1" parent="1" source="tPsQbabGo925ckdTW9Yo-94">
          <mxGeometry width="50" height="50" relative="1" as="geometry">
            <mxPoint x="-60" y="1440" as="sourcePoint" />
            <mxPoint x="2440" y="1440" as="targetPoint" />
          </mxGeometry>
        </mxCell>
        <mxCell id="tPsQbabGo925ckdTW9Yo-93" value="" style="endArrow=none;dashed=1;html=1;rounded=0;fillColor=#e1d5e7;strokeColor=#9673a6;strokeWidth=4;" edge="1" parent="1">
          <mxGeometry width="50" height="50" relative="1" as="geometry">
            <mxPoint x="-40" y="1443.76" as="sourcePoint" />
            <mxPoint x="930.171628268185" y="1440.0025575977218" as="targetPoint" />
          </mxGeometry>
        </mxCell>
        <mxCell id="tPsQbabGo925ckdTW9Yo-94" value="== Выход из аккаунта ==" style="shape=parallelogram;perimeter=parallelogramPerimeter;whiteSpace=wrap;html=1;fixedSize=1;fillColor=#E6D0DE;strokeColor=#9673a6;" vertex="1" parent="1">
          <mxGeometry x="901" y="1420" width="660" height="30" as="geometry" />
        </mxCell>
        <mxCell id="tPsQbabGo925ckdTW9Yo-95" value="" style="endArrow=classic;html=1;rounded=0;" edge="1" parent="1">
          <mxGeometry width="50" height="50" relative="1" as="geometry">
            <mxPoint x="20" y="1520" as="sourcePoint" />
            <mxPoint x="630" y="1520" as="targetPoint" />
          </mxGeometry>
        </mxCell>
        <mxCell id="tPsQbabGo925ckdTW9Yo-96" value="Нажатие &quot;Выход&quot;" style="text;html=1;align=center;verticalAlign=middle;whiteSpace=wrap;rounded=0;" vertex="1" parent="1">
          <mxGeometry x="210" y="1490" width="320" height="30" as="geometry" />
        </mxCell>
        <mxCell id="tPsQbabGo925ckdTW9Yo-97" value="" style="endArrow=classic;html=1;rounded=0;" edge="1" parent="1">
          <mxGeometry width="50" height="50" relative="1" as="geometry">
            <mxPoint x="620" y="1570" as="sourcePoint" />
            <mxPoint x="20" y="1570" as="targetPoint" />
          </mxGeometry>
        </mxCell>
        <mxCell id="tPsQbabGo925ckdTW9Yo-98" value="Завершение сессии" style="text;html=1;align=center;verticalAlign=middle;whiteSpace=wrap;rounded=0;" vertex="1" parent="1">
          <mxGeometry x="240" y="1530" width="230" height="30" as="geometry" />
        </mxCell>
        <mxCell id="tPsQbabGo925ckdTW9Yo-99" value="" style="endArrow=none;dashed=1;html=1;rounded=0;fillColor=#e1d5e7;strokeColor=#9673a6;strokeWidth=4;" edge="1" parent="1" source="tPsQbabGo925ckdTW9Yo-101">
          <mxGeometry width="50" height="50" relative="1" as="geometry">
            <mxPoint x="-40" y="1610" as="sourcePoint" />
            <mxPoint x="2460" y="1610" as="targetPoint" />
          </mxGeometry>
        </mxCell>
        <mxCell id="tPsQbabGo925ckdTW9Yo-100" value="" style="endArrow=none;dashed=1;html=1;rounded=0;fillColor=#e1d5e7;strokeColor=#9673a6;strokeWidth=4;" edge="1" parent="1" target="tPsQbabGo925ckdTW9Yo-101">
          <mxGeometry width="50" height="50" relative="1" as="geometry">
            <mxPoint x="-40" y="1610" as="sourcePoint" />
            <mxPoint x="2460" y="1610" as="targetPoint" />
          </mxGeometry>
        </mxCell>
        <mxCell id="tPsQbabGo925ckdTW9Yo-101" value="== Меню администратора ==" style="shape=parallelogram;perimeter=parallelogramPerimeter;whiteSpace=wrap;html=1;fixedSize=1;fillColor=#E6D0DE;strokeColor=#9673a6;" vertex="1" parent="1">
          <mxGeometry x="901" y="1600" width="660" height="30" as="geometry" />
        </mxCell>
        <mxCell id="tPsQbabGo925ckdTW9Yo-102" value="сли пользователь — администратор" style="text;html=1;align=center;verticalAlign=middle;whiteSpace=wrap;rounded=0;" vertex="1" parent="1">
          <mxGeometry x="240" y="1650" width="220" height="30" as="geometry" />
        </mxCell>
        <mxCell id="tPsQbabGo925ckdTW9Yo-103" value="" style="endArrow=classic;html=1;rounded=0;" edge="1" parent="1">
          <mxGeometry width="50" height="50" relative="1" as="geometry">
            <mxPoint x="610" y="1680" as="sourcePoint" />
            <mxPoint x="200" y="1680" as="targetPoint" />
          </mxGeometry>
        </mxCell>
        <mxCell id="tPsQbabGo925ckdTW9Yo-104" value="" style="endArrow=classic;html=1;rounded=0;" edge="1" parent="1">
          <mxGeometry width="50" height="50" relative="1" as="geometry">
            <mxPoint x="200" y="1731" as="sourcePoint" />
            <mxPoint x="1300" y="1730" as="targetPoint" />
          </mxGeometry>
        </mxCell>
        <mxCell id="tPsQbabGo925ckdTW9Yo-105" value="Открытие меню администратора" style="text;html=1;align=center;verticalAlign=middle;whiteSpace=wrap;rounded=0;" vertex="1" parent="1">
          <mxGeometry x="230" y="1690" width="240" height="30" as="geometry" />
        </mxCell>
        <mxCell id="tPsQbabGo925ckdTW9Yo-106" value="" style="endArrow=classic;html=1;rounded=0;" edge="1" parent="1">
          <mxGeometry width="50" height="50" relative="1" as="geometry">
            <mxPoint x="1300" y="1770" as="sourcePoint" />
            <mxPoint x="200" y="1770" as="targetPoint" />
          </mxGeometry>
        </mxCell>
        <mxCell id="tPsQbabGo925ckdTW9Yo-107" value="" style="endArrow=classic;html=1;rounded=0;" edge="1" parent="1">
          <mxGeometry width="50" height="50" relative="1" as="geometry">
            <mxPoint x="1300" y="1810" as="sourcePoint" />
            <mxPoint x="200" y="1810" as="targetPoint" />
          </mxGeometry>
        </mxCell>
        <mxCell id="tPsQbabGo925ckdTW9Yo-108" value="" style="endArrow=classic;html=1;rounded=0;" edge="1" parent="1">
          <mxGeometry width="50" height="50" relative="1" as="geometry">
            <mxPoint x="1300" y="1853" as="sourcePoint" />
            <mxPoint x="200" y="1850" as="targetPoint" />
          </mxGeometry>
        </mxCell>
        <mxCell id="tPsQbabGo925ckdTW9Yo-109" value="" style="endArrow=classic;html=1;rounded=0;" edge="1" parent="1">
          <mxGeometry width="50" height="50" relative="1" as="geometry">
            <mxPoint x="1300" y="1890" as="sourcePoint" />
            <mxPoint x="200" y="1890" as="targetPoint" />
          </mxGeometry>
        </mxCell>
        <mxCell id="tPsQbabGo925ckdTW9Yo-110" value="" style="endArrow=classic;html=1;rounded=0;" edge="1" parent="1">
          <mxGeometry width="50" height="50" relative="1" as="geometry">
            <mxPoint x="1300" y="1930" as="sourcePoint" />
            <mxPoint x="200" y="1930" as="targetPoint" />
          </mxGeometry>
        </mxCell>
        <mxCell id="tPsQbabGo925ckdTW9Yo-111" value="Показать кнопки:" style="text;html=1;align=center;verticalAlign=middle;whiteSpace=wrap;rounded=0;fillColor=#f8cecc;strokeColor=#b85450;" vertex="1" parent="1">
          <mxGeometry x="270" y="1740" width="160" height="30" as="geometry" />
        </mxCell>
        <mxCell id="tPsQbabGo925ckdTW9Yo-112" value="1. Водители" style="text;html=1;align=center;verticalAlign=middle;whiteSpace=wrap;rounded=0;" vertex="1" parent="1">
          <mxGeometry x="285" y="1780" width="130" height="30" as="geometry" />
        </mxCell>
        <mxCell id="tPsQbabGo925ckdTW9Yo-113" value="2. Транспорт" style="text;html=1;align=center;verticalAlign=middle;whiteSpace=wrap;rounded=0;" vertex="1" parent="1">
          <mxGeometry x="295" y="1825" width="120" height="30" as="geometry" />
        </mxCell>
        <mxCell id="tPsQbabGo925ckdTW9Yo-114" value="3. Маршруты" style="text;html=1;align=center;verticalAlign=middle;whiteSpace=wrap;rounded=0;" vertex="1" parent="1">
          <mxGeometry x="304" y="1860" width="100" height="30" as="geometry" />
        </mxCell>
        <mxCell id="tPsQbabGo925ckdTW9Yo-115" value="4. Выход" style="text;html=1;align=center;verticalAlign=middle;whiteSpace=wrap;rounded=0;" vertex="1" parent="1">
          <mxGeometry x="305" y="1900" width="100" height="30" as="geometry" />
        </mxCell>
        <mxCell id="tPsQbabGo925ckdTW9Yo-116" value="" style="endArrow=none;dashed=1;html=1;rounded=0;fillColor=#e1d5e7;strokeColor=#9673a6;strokeWidth=4;" edge="1" parent="1" source="tPsQbabGo925ckdTW9Yo-118">
          <mxGeometry width="50" height="50" relative="1" as="geometry">
            <mxPoint x="-50" y="1970" as="sourcePoint" />
            <mxPoint x="2421.818181818182" y="1970" as="targetPoint" />
          </mxGeometry>
        </mxCell>
        <mxCell id="tPsQbabGo925ckdTW9Yo-117" value="" style="endArrow=none;dashed=1;html=1;rounded=0;fillColor=#e1d5e7;strokeColor=#9673a6;strokeWidth=4;" edge="1" parent="1" target="tPsQbabGo925ckdTW9Yo-118">
          <mxGeometry width="50" height="50" relative="1" as="geometry">
            <mxPoint x="-50" y="1970" as="sourcePoint" />
            <mxPoint x="2421.818181818182" y="1970" as="targetPoint" />
          </mxGeometry>
        </mxCell>
        <mxCell id="tPsQbabGo925ckdTW9Yo-118" value="== Администратор выбирает &quot;Водители&quot; ==" style="shape=parallelogram;perimeter=parallelogramPerimeter;whiteSpace=wrap;html=1;fixedSize=1;fillColor=#E6D0DE;strokeColor=#9673a6;" vertex="1" parent="1">
          <mxGeometry x="930" y="1950" width="660" height="30" as="geometry" />
        </mxCell>
        <mxCell id="tPsQbabGo925ckdTW9Yo-119" value="" style="endArrow=classic;html=1;rounded=0;" edge="1" parent="1">
          <mxGeometry width="50" height="50" relative="1" as="geometry">
            <mxPoint x="200" y="2040" as="sourcePoint" />
            <mxPoint x="1530" y="2040" as="targetPoint" />
          </mxGeometry>
        </mxCell>
        <mxCell id="tPsQbabGo925ckdTW9Yo-120" value="&amp;nbsp;Нажатие на кнопку &quot;Водители&quot;" style="text;html=1;align=center;verticalAlign=middle;whiteSpace=wrap;rounded=0;" vertex="1" parent="1">
          <mxGeometry x="260" y="2000" width="220" height="30" as="geometry" />
        </mxCell>
        <mxCell id="tPsQbabGo925ckdTW9Yo-121" value="" style="endArrow=classic;html=1;rounded=0;" edge="1" parent="1">
          <mxGeometry width="50" height="50" relative="1" as="geometry">
            <mxPoint x="1530" y="2080" as="sourcePoint" />
            <mxPoint x="200" y="2080" as="targetPoint" />
          </mxGeometry>
        </mxCell>
        <mxCell id="tPsQbabGo925ckdTW9Yo-123" value="Показать список водителей" style="text;html=1;align=center;verticalAlign=middle;whiteSpace=wrap;rounded=0;" vertex="1" parent="1">
          <mxGeometry x="277.5" y="2050" width="185" height="30" as="geometry" />
        </mxCell>
        <mxCell id="tPsQbabGo925ckdTW9Yo-124" value="Добавить водителя" style="text;html=1;align=center;verticalAlign=middle;whiteSpace=wrap;rounded=0;" vertex="1" parent="1">
          <mxGeometry x="231.25" y="2090" width="277.5" height="30" as="geometry" />
        </mxCell>
        <mxCell id="tPsQbabGo925ckdTW9Yo-126" value="&lt;div&gt;Сохранить нового водителя в базе данных&lt;/div&gt;" style="text;html=1;align=center;verticalAlign=middle;whiteSpace=wrap;rounded=0;" vertex="1" parent="1">
          <mxGeometry x="280" y="2120" width="260" height="30" as="geometry" />
        </mxCell>
        <mxCell id="tPsQbabGo925ckdTW9Yo-127" value="" style="endArrow=classic;html=1;rounded=0;" edge="1" parent="1">
          <mxGeometry width="50" height="50" relative="1" as="geometry">
            <mxPoint x="200" y="2120" as="sourcePoint" />
            <mxPoint x="1530" y="2120" as="targetPoint" />
          </mxGeometry>
        </mxCell>
        <mxCell id="tPsQbabGo925ckdTW9Yo-128" value="" style="endArrow=classic;html=1;rounded=0;" edge="1" parent="1">
          <mxGeometry width="50" height="50" relative="1" as="geometry">
            <mxPoint x="198.78" y="2150" as="sourcePoint" />
            <mxPoint x="2263.22" y="2150" as="targetPoint" />
          </mxGeometry>
        </mxCell>
        <mxCell id="tPsQbabGo925ckdTW9Yo-129" value="" style="endArrow=classic;html=1;rounded=0;" edge="1" parent="1">
          <mxGeometry width="50" height="50" relative="1" as="geometry">
            <mxPoint x="200" y="2190" as="sourcePoint" />
            <mxPoint x="1530" y="2190" as="targetPoint" />
          </mxGeometry>
        </mxCell>
        <mxCell id="tPsQbabGo925ckdTW9Yo-130" value="" style="endArrow=classic;html=1;rounded=0;" edge="1" parent="1">
          <mxGeometry width="50" height="50" relative="1" as="geometry">
            <mxPoint x="200" y="2230" as="sourcePoint" />
            <mxPoint x="2260" y="2230" as="targetPoint" />
          </mxGeometry>
        </mxCell>
        <mxCell id="tPsQbabGo925ckdTW9Yo-131" value="" style="endArrow=classic;html=1;rounded=0;" edge="1" parent="1">
          <mxGeometry width="50" height="50" relative="1" as="geometry">
            <mxPoint x="200" y="2337" as="sourcePoint" />
            <mxPoint x="1300" y="2337" as="targetPoint" />
          </mxGeometry>
        </mxCell>
        <mxCell id="tPsQbabGo925ckdTW9Yo-132" value="" style="endArrow=classic;html=1;rounded=0;" edge="1" parent="1">
          <mxGeometry width="50" height="50" relative="1" as="geometry">
            <mxPoint x="200" y="2300" as="sourcePoint" />
            <mxPoint x="2273.478260869565" y="2290" as="targetPoint" />
          </mxGeometry>
        </mxCell>
        <mxCell id="tPsQbabGo925ckdTW9Yo-133" value="" style="endArrow=classic;html=1;rounded=0;" edge="1" parent="1">
          <mxGeometry width="50" height="50" relative="1" as="geometry">
            <mxPoint x="200" y="2260" as="sourcePoint" />
            <mxPoint x="1530" y="2260" as="targetPoint" />
          </mxGeometry>
        </mxCell>
        <mxCell id="tPsQbabGo925ckdTW9Yo-134" value="" style="endArrow=none;dashed=1;html=1;rounded=0;strokeWidth=1;fillColor=#e1d5e7;strokeColor=#9673a6;" edge="1" parent="1">
          <mxGeometry width="50" height="50" relative="1" as="geometry">
            <mxPoint x="2270" y="3450" as="sourcePoint" />
            <mxPoint x="2260" y="40" as="targetPoint" />
          </mxGeometry>
        </mxCell>
        <mxCell id="tPsQbabGo925ckdTW9Yo-135" value="Редактировать водителя" style="text;html=1;align=center;verticalAlign=middle;whiteSpace=wrap;rounded=0;" vertex="1" parent="1">
          <mxGeometry x="290" y="2160" width="190" height="30" as="geometry" />
        </mxCell>
        <mxCell id="tPsQbabGo925ckdTW9Yo-136" value="Обновить данные водителя в базе данных" style="text;html=1;align=center;verticalAlign=middle;whiteSpace=wrap;rounded=0;" vertex="1" parent="1">
          <mxGeometry x="150" y="2200" width="420" height="30" as="geometry" />
        </mxCell>
        <mxCell id="tPsQbabGo925ckdTW9Yo-137" value="Удалить водителя" style="text;html=1;align=center;verticalAlign=middle;whiteSpace=wrap;rounded=0;" vertex="1" parent="1">
          <mxGeometry x="277.5" y="2230" width="170" height="30" as="geometry" />
        </mxCell>
        <mxCell id="tPsQbabGo925ckdTW9Yo-138" value="Удалить водителя из базы данных" style="text;html=1;align=center;verticalAlign=middle;whiteSpace=wrap;rounded=0;" vertex="1" parent="1">
          <mxGeometry x="251.25" y="2270" width="220" height="30" as="geometry" />
        </mxCell>
        <mxCell id="tPsQbabGo925ckdTW9Yo-139" value="&lt;div&gt;Выход из окна водителей&lt;/div&gt;&lt;div&gt;&lt;br&gt;&lt;/div&gt;" style="text;html=1;align=center;verticalAlign=middle;whiteSpace=wrap;rounded=0;" vertex="1" parent="1">
          <mxGeometry x="263.75" y="2308" width="195" height="30" as="geometry" />
        </mxCell>
        <mxCell id="tPsQbabGo925ckdTW9Yo-141" value="" style="endArrow=none;dashed=1;html=1;rounded=0;fillColor=#e1d5e7;strokeColor=#9673a6;strokeWidth=4;" edge="1" parent="1" source="tPsQbabGo925ckdTW9Yo-143">
          <mxGeometry width="50" height="50" relative="1" as="geometry">
            <mxPoint x="-50" y="2390" as="sourcePoint" />
            <mxPoint x="2421.818181818182" y="2390" as="targetPoint" />
          </mxGeometry>
        </mxCell>
        <mxCell id="tPsQbabGo925ckdTW9Yo-142" value="" style="endArrow=none;dashed=1;html=1;rounded=0;fillColor=#e1d5e7;strokeColor=#9673a6;strokeWidth=4;" edge="1" parent="1" target="tPsQbabGo925ckdTW9Yo-143">
          <mxGeometry width="50" height="50" relative="1" as="geometry">
            <mxPoint x="-50" y="2390" as="sourcePoint" />
            <mxPoint x="2421.818181818182" y="2390" as="targetPoint" />
          </mxGeometry>
        </mxCell>
        <mxCell id="tPsQbabGo925ckdTW9Yo-143" value="== Администратор выбирает &quot;Транспорт&quot; ==" style="shape=parallelogram;perimeter=parallelogramPerimeter;whiteSpace=wrap;html=1;fixedSize=1;fillColor=#E6D0DE;strokeColor=#9673a6;" vertex="1" parent="1">
          <mxGeometry x="930" y="2370" width="660" height="30" as="geometry" />
        </mxCell>
        <mxCell id="tPsQbabGo925ckdTW9Yo-144" value="" style="endArrow=classic;html=1;rounded=0;" edge="1" parent="1">
          <mxGeometry width="50" height="50" relative="1" as="geometry">
            <mxPoint x="200" y="2460" as="sourcePoint" />
            <mxPoint x="1800" y="2460" as="targetPoint" />
          </mxGeometry>
        </mxCell>
        <mxCell id="tPsQbabGo925ckdTW9Yo-145" value="Нажатие на кнопку &quot;Транспорт&quot;" style="text;html=1;align=center;verticalAlign=middle;whiteSpace=wrap;rounded=0;" vertex="1" parent="1">
          <mxGeometry x="260" y="2420" width="220" height="30" as="geometry" />
        </mxCell>
        <mxCell id="tPsQbabGo925ckdTW9Yo-146" value="" style="endArrow=classic;html=1;rounded=0;" edge="1" parent="1">
          <mxGeometry width="50" height="50" relative="1" as="geometry">
            <mxPoint x="1800" y="2500" as="sourcePoint" />
            <mxPoint x="200" y="2500" as="targetPoint" />
          </mxGeometry>
        </mxCell>
        <mxCell id="tPsQbabGo925ckdTW9Yo-147" value="Показать список транспорта" style="text;html=1;align=center;verticalAlign=middle;whiteSpace=wrap;rounded=0;" vertex="1" parent="1">
          <mxGeometry x="277.5" y="2470" width="185" height="30" as="geometry" />
        </mxCell>
        <mxCell id="tPsQbabGo925ckdTW9Yo-148" value="Добавить транспорт" style="text;html=1;align=center;verticalAlign=middle;whiteSpace=wrap;rounded=0;" vertex="1" parent="1">
          <mxGeometry x="231.25" y="2510" width="277.5" height="30" as="geometry" />
        </mxCell>
        <mxCell id="tPsQbabGo925ckdTW9Yo-149" value="&lt;div&gt;Cохранить новый транспорт в базе данных&lt;/div&gt;" style="text;html=1;align=center;verticalAlign=middle;whiteSpace=wrap;rounded=0;" vertex="1" parent="1">
          <mxGeometry x="280" y="2540" width="260" height="30" as="geometry" />
        </mxCell>
        <mxCell id="tPsQbabGo925ckdTW9Yo-150" value="" style="endArrow=classic;html=1;rounded=0;" edge="1" parent="1">
          <mxGeometry width="50" height="50" relative="1" as="geometry">
            <mxPoint x="200" y="2540" as="sourcePoint" />
            <mxPoint x="1800" y="2540" as="targetPoint" />
          </mxGeometry>
        </mxCell>
        <mxCell id="tPsQbabGo925ckdTW9Yo-151" value="" style="endArrow=classic;html=1;rounded=0;" edge="1" parent="1">
          <mxGeometry width="50" height="50" relative="1" as="geometry">
            <mxPoint x="198.78" y="2570" as="sourcePoint" />
            <mxPoint x="2263.22" y="2570" as="targetPoint" />
          </mxGeometry>
        </mxCell>
        <mxCell id="tPsQbabGo925ckdTW9Yo-152" value="" style="endArrow=classic;html=1;rounded=0;" edge="1" parent="1">
          <mxGeometry width="50" height="50" relative="1" as="geometry">
            <mxPoint x="200" y="2610" as="sourcePoint" />
            <mxPoint x="1790" y="2610" as="targetPoint" />
          </mxGeometry>
        </mxCell>
        <mxCell id="tPsQbabGo925ckdTW9Yo-153" value="" style="endArrow=classic;html=1;rounded=0;" edge="1" parent="1">
          <mxGeometry width="50" height="50" relative="1" as="geometry">
            <mxPoint x="200" y="2650" as="sourcePoint" />
            <mxPoint x="2260" y="2650" as="targetPoint" />
          </mxGeometry>
        </mxCell>
        <mxCell id="tPsQbabGo925ckdTW9Yo-154" value="" style="endArrow=classic;html=1;rounded=0;" edge="1" parent="1">
          <mxGeometry width="50" height="50" relative="1" as="geometry">
            <mxPoint x="200" y="2757" as="sourcePoint" />
            <mxPoint x="1300" y="2757" as="targetPoint" />
          </mxGeometry>
        </mxCell>
        <mxCell id="tPsQbabGo925ckdTW9Yo-155" value="" style="endArrow=classic;html=1;rounded=0;" edge="1" parent="1">
          <mxGeometry width="50" height="50" relative="1" as="geometry">
            <mxPoint x="200" y="2720" as="sourcePoint" />
            <mxPoint x="2260" y="2720" as="targetPoint" />
          </mxGeometry>
        </mxCell>
        <mxCell id="tPsQbabGo925ckdTW9Yo-156" value="" style="endArrow=classic;html=1;rounded=0;" edge="1" parent="1">
          <mxGeometry width="50" height="50" relative="1" as="geometry">
            <mxPoint x="200" y="2680" as="sourcePoint" />
            <mxPoint x="1800" y="2680" as="targetPoint" />
          </mxGeometry>
        </mxCell>
        <mxCell id="tPsQbabGo925ckdTW9Yo-157" value="&amp;nbsp;Редактировать транспорт" style="text;html=1;align=center;verticalAlign=middle;whiteSpace=wrap;rounded=0;" vertex="1" parent="1">
          <mxGeometry x="290" y="2580" width="190" height="30" as="geometry" />
        </mxCell>
        <mxCell id="tPsQbabGo925ckdTW9Yo-158" value="Обновить данные транспорта в базе данных" style="text;html=1;align=center;verticalAlign=middle;whiteSpace=wrap;rounded=0;" vertex="1" parent="1">
          <mxGeometry x="150" y="2620" width="420" height="30" as="geometry" />
        </mxCell>
        <mxCell id="tPsQbabGo925ckdTW9Yo-159" value="Удалить транспорт" style="text;html=1;align=center;verticalAlign=middle;whiteSpace=wrap;rounded=0;" vertex="1" parent="1">
          <mxGeometry x="277.5" y="2650" width="170" height="30" as="geometry" />
        </mxCell>
        <mxCell id="tPsQbabGo925ckdTW9Yo-160" value="Удалить транспорт из базы данных" style="text;html=1;align=center;verticalAlign=middle;whiteSpace=wrap;rounded=0;" vertex="1" parent="1">
          <mxGeometry x="251.25" y="2690" width="220" height="30" as="geometry" />
        </mxCell>
        <mxCell id="tPsQbabGo925ckdTW9Yo-161" value="&lt;div&gt;Выход из окна транспорта&lt;/div&gt;" style="text;html=1;align=center;verticalAlign=middle;whiteSpace=wrap;rounded=0;" vertex="1" parent="1">
          <mxGeometry x="263.75" y="2728" width="195" height="30" as="geometry" />
        </mxCell>
        <mxCell id="tPsQbabGo925ckdTW9Yo-162" value="" style="endArrow=none;dashed=1;html=1;rounded=0;fillColor=#e1d5e7;strokeColor=#9673a6;strokeWidth=4;" edge="1" parent="1" source="tPsQbabGo925ckdTW9Yo-164">
          <mxGeometry width="50" height="50" relative="1" as="geometry">
            <mxPoint x="-50" y="2778" as="sourcePoint" />
            <mxPoint x="2421.818181818182" y="2778" as="targetPoint" />
          </mxGeometry>
        </mxCell>
        <mxCell id="tPsQbabGo925ckdTW9Yo-163" value="" style="endArrow=none;dashed=1;html=1;rounded=0;fillColor=#e1d5e7;strokeColor=#9673a6;strokeWidth=4;" edge="1" parent="1" target="tPsQbabGo925ckdTW9Yo-164">
          <mxGeometry width="50" height="50" relative="1" as="geometry">
            <mxPoint x="-50" y="2778" as="sourcePoint" />
            <mxPoint x="2421.818181818182" y="2778" as="targetPoint" />
          </mxGeometry>
        </mxCell>
        <mxCell id="tPsQbabGo925ckdTW9Yo-164" value="== Администратор выбирает &quot;Маршруты&quot; ==" style="shape=parallelogram;perimeter=parallelogramPerimeter;whiteSpace=wrap;html=1;fixedSize=1;fillColor=#E6D0DE;strokeColor=#9673a6;" vertex="1" parent="1">
          <mxGeometry x="930" y="2770" width="660" height="30" as="geometry" />
        </mxCell>
        <mxCell id="tPsQbabGo925ckdTW9Yo-165" value="" style="endArrow=classic;html=1;rounded=0;" edge="1" parent="1">
          <mxGeometry width="50" height="50" relative="1" as="geometry">
            <mxPoint x="200" y="2848" as="sourcePoint" />
            <mxPoint x="2050" y="2848" as="targetPoint" />
          </mxGeometry>
        </mxCell>
        <mxCell id="tPsQbabGo925ckdTW9Yo-166" value="Нажатие на кнопку &quot;Маршруты&quot;" style="text;html=1;align=center;verticalAlign=middle;whiteSpace=wrap;rounded=0;" vertex="1" parent="1">
          <mxGeometry x="260" y="2808" width="220" height="30" as="geometry" />
        </mxCell>
        <mxCell id="tPsQbabGo925ckdTW9Yo-167" value="" style="endArrow=classic;html=1;rounded=0;" edge="1" parent="1">
          <mxGeometry width="50" height="50" relative="1" as="geometry">
            <mxPoint x="2050" y="2880" as="sourcePoint" />
            <mxPoint x="200" y="2888" as="targetPoint" />
          </mxGeometry>
        </mxCell>
        <mxCell id="tPsQbabGo925ckdTW9Yo-168" value="Показать список маршрутов" style="text;html=1;align=center;verticalAlign=middle;whiteSpace=wrap;rounded=0;" vertex="1" parent="1">
          <mxGeometry x="280" y="2858" width="182.5" height="32" as="geometry" />
        </mxCell>
        <mxCell id="tPsQbabGo925ckdTW9Yo-169" value="Добавить маршрут" style="text;html=1;align=center;verticalAlign=middle;whiteSpace=wrap;rounded=0;" vertex="1" parent="1">
          <mxGeometry x="231.25" y="2898" width="277.5" height="30" as="geometry" />
        </mxCell>
        <mxCell id="tPsQbabGo925ckdTW9Yo-170" value="&lt;div&gt;Сохранить новый маршрут в базе данных&lt;/div&gt;" style="text;html=1;align=center;verticalAlign=middle;whiteSpace=wrap;rounded=0;" vertex="1" parent="1">
          <mxGeometry x="280" y="2928" width="260" height="30" as="geometry" />
        </mxCell>
        <mxCell id="tPsQbabGo925ckdTW9Yo-171" value="" style="endArrow=classic;html=1;rounded=0;" edge="1" parent="1">
          <mxGeometry width="50" height="50" relative="1" as="geometry">
            <mxPoint x="200" y="2928" as="sourcePoint" />
            <mxPoint x="2050" y="2928" as="targetPoint" />
          </mxGeometry>
        </mxCell>
        <mxCell id="tPsQbabGo925ckdTW9Yo-172" value="" style="endArrow=classic;html=1;rounded=0;" edge="1" parent="1">
          <mxGeometry width="50" height="50" relative="1" as="geometry">
            <mxPoint x="198.78" y="2958" as="sourcePoint" />
            <mxPoint x="2263.22" y="2958" as="targetPoint" />
          </mxGeometry>
        </mxCell>
        <mxCell id="tPsQbabGo925ckdTW9Yo-173" value="" style="endArrow=classic;html=1;rounded=0;" edge="1" parent="1">
          <mxGeometry width="50" height="50" relative="1" as="geometry">
            <mxPoint x="200" y="2998" as="sourcePoint" />
            <mxPoint x="2040" y="3000" as="targetPoint" />
          </mxGeometry>
        </mxCell>
        <mxCell id="tPsQbabGo925ckdTW9Yo-174" value="" style="endArrow=classic;html=1;rounded=0;" edge="1" parent="1">
          <mxGeometry width="50" height="50" relative="1" as="geometry">
            <mxPoint x="200" y="3038" as="sourcePoint" />
            <mxPoint x="2260" y="3038" as="targetPoint" />
          </mxGeometry>
        </mxCell>
        <mxCell id="tPsQbabGo925ckdTW9Yo-175" value="" style="endArrow=classic;html=1;rounded=0;" edge="1" parent="1">
          <mxGeometry width="50" height="50" relative="1" as="geometry">
            <mxPoint x="200" y="3145" as="sourcePoint" />
            <mxPoint x="1300" y="3145" as="targetPoint" />
          </mxGeometry>
        </mxCell>
        <mxCell id="tPsQbabGo925ckdTW9Yo-176" value="" style="endArrow=classic;html=1;rounded=0;" edge="1" parent="1">
          <mxGeometry width="50" height="50" relative="1" as="geometry">
            <mxPoint x="200" y="3108" as="sourcePoint" />
            <mxPoint x="2260" y="3108" as="targetPoint" />
          </mxGeometry>
        </mxCell>
        <mxCell id="tPsQbabGo925ckdTW9Yo-177" value="" style="endArrow=classic;html=1;rounded=0;" edge="1" parent="1">
          <mxGeometry width="50" height="50" relative="1" as="geometry">
            <mxPoint x="200" y="3068" as="sourcePoint" />
            <mxPoint x="2050" y="3070" as="targetPoint" />
          </mxGeometry>
        </mxCell>
        <mxCell id="tPsQbabGo925ckdTW9Yo-178" value="Редактировать маршрут" style="text;html=1;align=center;verticalAlign=middle;whiteSpace=wrap;rounded=0;" vertex="1" parent="1">
          <mxGeometry x="290" y="2968" width="190" height="30" as="geometry" />
        </mxCell>
        <mxCell id="tPsQbabGo925ckdTW9Yo-179" value="Обновить данные маршрута в базе данных" style="text;html=1;align=center;verticalAlign=middle;whiteSpace=wrap;rounded=0;" vertex="1" parent="1">
          <mxGeometry x="150" y="3008" width="420" height="30" as="geometry" />
        </mxCell>
        <mxCell id="tPsQbabGo925ckdTW9Yo-180" value="&amp;nbsp;Удалить маршрут" style="text;html=1;align=center;verticalAlign=middle;whiteSpace=wrap;rounded=0;" vertex="1" parent="1">
          <mxGeometry x="277.5" y="3038" width="170" height="30" as="geometry" />
        </mxCell>
        <mxCell id="tPsQbabGo925ckdTW9Yo-181" value="Удалить маршрут из базы данных" style="text;html=1;align=center;verticalAlign=middle;whiteSpace=wrap;rounded=0;" vertex="1" parent="1">
          <mxGeometry x="251.25" y="3078" width="220" height="30" as="geometry" />
        </mxCell>
        <mxCell id="tPsQbabGo925ckdTW9Yo-182" value="&lt;div&gt;Выход из окна маршрутов&lt;/div&gt;" style="text;html=1;align=center;verticalAlign=middle;whiteSpace=wrap;rounded=0;" vertex="1" parent="1">
          <mxGeometry x="263.75" y="3116" width="195" height="30" as="geometry" />
        </mxCell>
        <mxCell id="tPsQbabGo925ckdTW9Yo-183" value="" style="endArrow=none;dashed=1;html=1;rounded=0;fillColor=#e1d5e7;strokeColor=#9673a6;strokeWidth=4;" edge="1" parent="1" source="tPsQbabGo925ckdTW9Yo-185">
          <mxGeometry width="50" height="50" relative="1" as="geometry">
            <mxPoint x="-80" y="3190" as="sourcePoint" />
            <mxPoint x="2420" y="3190" as="targetPoint" />
          </mxGeometry>
        </mxCell>
        <mxCell id="tPsQbabGo925ckdTW9Yo-184" value="" style="endArrow=none;dashed=1;html=1;rounded=0;fillColor=#e1d5e7;strokeColor=#9673a6;strokeWidth=4;" edge="1" parent="1">
          <mxGeometry width="50" height="50" relative="1" as="geometry">
            <mxPoint x="-60" y="3193.76" as="sourcePoint" />
            <mxPoint x="910.171628268185" y="3190.0025575977215" as="targetPoint" />
          </mxGeometry>
        </mxCell>
        <mxCell id="tPsQbabGo925ckdTW9Yo-185" value="== Выход из аккаунта администратора ==" style="shape=parallelogram;perimeter=parallelogramPerimeter;whiteSpace=wrap;html=1;fixedSize=1;fillColor=#E6D0DE;strokeColor=#9673a6;" vertex="1" parent="1">
          <mxGeometry x="881" y="3170" width="660" height="30" as="geometry" />
        </mxCell>
        <mxCell id="tPsQbabGo925ckdTW9Yo-186" value="" style="endArrow=classic;html=1;rounded=0;exitX=0.028;exitY=0.863;exitDx=0;exitDy=0;exitPerimeter=0;" edge="1" parent="1" source="tPsQbabGo925ckdTW9Yo-187">
          <mxGeometry width="50" height="50" relative="1" as="geometry">
            <mxPoint y="3270" as="sourcePoint" />
            <mxPoint x="630" y="3266" as="targetPoint" />
          </mxGeometry>
        </mxCell>
        <mxCell id="tPsQbabGo925ckdTW9Yo-187" value="Нажатие &quot;Выход&quot;" style="text;html=1;align=center;verticalAlign=middle;whiteSpace=wrap;rounded=0;" vertex="1" parent="1">
          <mxGeometry x="190" y="3240" width="320" height="30" as="geometry" />
        </mxCell>
        <mxCell id="tPsQbabGo925ckdTW9Yo-188" value="" style="endArrow=classic;html=1;rounded=0;" edge="1" parent="1">
          <mxGeometry width="50" height="50" relative="1" as="geometry">
            <mxPoint x="620" y="3320" as="sourcePoint" />
            <mxPoint x="200" y="3320" as="targetPoint" />
          </mxGeometry>
        </mxCell>
        <mxCell id="tPsQbabGo925ckdTW9Yo-189" value="Завершение сессии" style="text;html=1;align=center;verticalAlign=middle;whiteSpace=wrap;rounded=0;" vertex="1" parent="1">
          <mxGeometry x="220" y="3280" width="230" height="30" as="geometry" />
        </mxCell>
        <mxCell id="tPsQbabGo925ckdTW9Yo-191" value="" style="endArrow=none;dashed=1;html=1;rounded=0;fillColor=#e1d5e7;strokeColor=#9673a6;strokeWidth=4;" edge="1" parent="1" source="tPsQbabGo925ckdTW9Yo-202">
          <mxGeometry width="50" height="50" relative="1" as="geometry">
            <mxPoint x="-80" y="3350" as="sourcePoint" />
            <mxPoint x="2420" y="3350" as="targetPoint" />
          </mxGeometry>
        </mxCell>
        <mxCell id="tPsQbabGo925ckdTW9Yo-192" value="User" style="shape=umlActor;verticalLabelPosition=bottom;verticalAlign=top;html=1;outlineConnect=0;" vertex="1" parent="1">
          <mxGeometry x="-20" y="3390" width="30" height="60" as="geometry" />
        </mxCell>
        <mxCell id="tPsQbabGo925ckdTW9Yo-193" value="Admin" style="shape=umlActor;verticalLabelPosition=bottom;verticalAlign=top;html=1;outlineConnect=0;" vertex="1" parent="1">
          <mxGeometry x="180" y="3390" width="30" height="60" as="geometry" />
        </mxCell>
        <mxCell id="tPsQbabGo925ckdTW9Yo-194" value="System" style="rounded=1;whiteSpace=wrap;html=1;fillColor=#e1d5e7;strokeColor=#9673a6;" vertex="1" parent="1">
          <mxGeometry x="560" y="3440" width="120" height="30" as="geometry" />
        </mxCell>
        <mxCell id="tPsQbabGo925ckdTW9Yo-195" value="RouteWindow" style="rounded=1;whiteSpace=wrap;html=1;fillColor=#e1d5e7;strokeColor=#9673a6;" vertex="1" parent="1">
          <mxGeometry x="1980" y="3430" width="120" height="30" as="geometry" />
        </mxCell>
        <mxCell id="tPsQbabGo925ckdTW9Yo-196" value="Database" style="rounded=1;whiteSpace=wrap;html=1;fillColor=#e1d5e7;strokeColor=#9673a6;" vertex="1" parent="1">
          <mxGeometry x="2220" y="3430" width="120" height="30" as="geometry" />
        </mxCell>
        <mxCell id="tPsQbabGo925ckdTW9Yo-201" value="" style="endArrow=none;dashed=1;html=1;rounded=0;fillColor=#e1d5e7;strokeColor=#9673a6;strokeWidth=4;" edge="1" parent="1" target="tPsQbabGo925ckdTW9Yo-202">
          <mxGeometry width="50" height="50" relative="1" as="geometry">
            <mxPoint x="-80" y="3350" as="sourcePoint" />
            <mxPoint x="2420" y="3350" as="targetPoint" />
          </mxGeometry>
        </mxCell>
        <mxCell id="tPsQbabGo925ckdTW9Yo-202" value="&lt;div&gt;&lt;span style=&quot;background-color: transparent; color: light-dark(rgb(0, 0, 0), rgb(255, 255, 255));&quot;&gt;== Регистрация и Авторизация ==&lt;/span&gt;&lt;/div&gt;" style="shape=parallelogram;perimeter=parallelogramPerimeter;whiteSpace=wrap;html=1;fixedSize=1;fillColor=#E6D0DE;strokeColor=#9673a6;" vertex="1" parent="1">
          <mxGeometry x="881" y="3330" width="660" height="30" as="geometry" />
        </mxCell>
        <mxCell id="tPsQbabGo925ckdTW9Yo-200" value="UserMenu" style="rounded=1;whiteSpace=wrap;html=1;fillColor=#e1d5e7;strokeColor=#9673a6;" vertex="1" parent="1">
          <mxGeometry x="1020" y="3430" width="120" height="30" as="geometry" />
        </mxCell>
        <mxCell id="tPsQbabGo925ckdTW9Yo-205" value="" style="endArrow=none;dashed=1;html=1;rounded=0;strokeWidth=1;fillColor=#e1d5e7;strokeColor=#9673a6;" edge="1" parent="1" target="tPsQbabGo925ckdTW9Yo-199">
          <mxGeometry width="50" height="50" relative="1" as="geometry">
            <mxPoint x="1300" y="3450" as="sourcePoint" />
            <mxPoint x="1300.23" y="40" as="targetPoint" />
          </mxGeometry>
        </mxCell>
        <mxCell id="tPsQbabGo925ckdTW9Yo-199" value="AdminMenu" style="rounded=1;whiteSpace=wrap;html=1;fillColor=#e1d5e7;strokeColor=#9673a6;" vertex="1" parent="1">
          <mxGeometry x="1241" y="3430" width="120" height="30" as="geometry" />
        </mxCell>
        <mxCell id="tPsQbabGo925ckdTW9Yo-206" value="" style="endArrow=none;dashed=1;html=1;rounded=0;strokeWidth=1;fillColor=#e1d5e7;strokeColor=#9673a6;" edge="1" parent="1" target="tPsQbabGo925ckdTW9Yo-198">
          <mxGeometry width="50" height="50" relative="1" as="geometry">
            <mxPoint x="1529" y="3460" as="sourcePoint" />
            <mxPoint x="1529.23" y="40" as="targetPoint" />
          </mxGeometry>
        </mxCell>
        <mxCell id="tPsQbabGo925ckdTW9Yo-198" value="DriverWindow" style="rounded=1;whiteSpace=wrap;html=1;fillColor=#e1d5e7;strokeColor=#9673a6;" vertex="1" parent="1">
          <mxGeometry x="1470" y="3430" width="120" height="30" as="geometry" />
        </mxCell>
        <mxCell id="tPsQbabGo925ckdTW9Yo-207" value="" style="endArrow=none;dashed=1;html=1;rounded=0;strokeWidth=1;fillColor=#e1d5e7;strokeColor=#9673a6;" edge="1" parent="1" target="tPsQbabGo925ckdTW9Yo-197">
          <mxGeometry width="50" height="50" relative="1" as="geometry">
            <mxPoint x="1800" y="3434" as="sourcePoint" />
            <mxPoint x="1789.23" y="40" as="targetPoint" />
          </mxGeometry>
        </mxCell>
        <mxCell id="tPsQbabGo925ckdTW9Yo-197" value="TransportWindow" style="rounded=1;whiteSpace=wrap;html=1;fillColor=#e1d5e7;strokeColor=#9673a6;" vertex="1" parent="1">
          <mxGeometry x="1730" y="3430" width="120" height="30" as="geometry" />
        </mxCell>
      </root>
    </mxGraphModel>
  </diagram>
</mxfile>
